<svg xmlns="http://www.w3.org/2000/svg" version="1.1" xmlns:xlink="http://www.w3.org/1999/xlink" xmlns:svgjs="http://svgjs.dev/svgjs" width="1000" height="328" viewBox="0 0 1000 328"><g transform="matrix(1,0,0,1,-0.6060606060606801,0.605236652830996)"><svg viewBox="0 0 396 130" data-background-color="#ffffff" preserveAspectRatio="xMidYMid meet" height="328" width="1000" xmlns="http://www.w3.org/2000/svg" xmlns:xlink="http://www.w3.org/1999/xlink"><g id="tight-bounds" transform="matrix(1,0,0,1,0.24000000000003752,-0.23988038069521167)"><svg viewBox="0 0 395.5199999999999 130.47976076139042" height="130.47976076139042" width="395.5199999999999"><g><svg viewBox="0 0 694.0001674401483 228.94664192949904" height="130.47976076139042" width="395.5199999999999"><g transform="matrix(1,0,0,1,298.48016744014836,0)"><svg viewBox="0 0 395.5199999999999 228.94664192949904" height="228.94664192949904" width="395.5199999999999"><g id="textblocktransform"><svg viewBox="0 0 395.5199999999999 228.94664192949904" height="228.94664192949904" width="395.5199999999999" id="textblock"><g><svg viewBox="0 0 395.5199999999999 228.94664192949904" height="228.94664192949904" width="395.5199999999999"><g transform="matrix(1,0,0,1,0,0)"><svg width="395.5199999999999" viewBox="1.1 -35.55 78.95 45.709999999999994" height="228.94664192949904" data-palette-color="#0074d9"><path d="M29.3-35.55L29.3-30.57 18.21-30.57 18.21 0 12.08 0 12.08-30.57 1.1-30.57 1.1-35.55 29.3-35.55ZM42.84 0.49L42.84 0.49Q37.2 0.49 33.7-3.06 30.2-6.62 30.2-12.52L30.2-12.52 30.2-13.26Q30.2-17.21 31.72-20.32 33.25-23.44 36.01-25.17 38.77-26.9 42.16-26.9L42.16-26.9Q47.56-26.9 50.5-23.46 53.44-20.02 53.44-13.72L53.44-13.72 53.44-11.33 36.18-11.33Q36.45-8.06 38.36-6.15 40.28-4.25 43.19-4.25L43.19-4.25Q47.26-4.25 49.83-7.54L49.83-7.54 53.02-4.49Q51.44-2.12 48.79-0.82 46.14 0.49 42.84 0.49ZM42.14-22.14L42.14-22.14Q39.69-22.14 38.19-20.43 36.69-18.73 36.28-15.67L36.28-15.67 47.58-15.67 47.58-16.11Q47.39-19.09 45.99-20.62 44.6-22.14 42.14-22.14ZM56.93-13.43L56.93-13.43Q56.93-19.63 59.76-23.27 62.59-26.9 67.43-26.9L67.43-26.9Q71.85-26.9 74.43-23.8L74.43-23.8 74.78-26.42 80.05-26.42 80.05 10.16 74.12 10.16 74.12-2.25Q71.53 0.49 67.38 0.49L67.38 0.49Q62.64 0.49 59.79-3.21 56.93-6.91 56.93-13.43ZM62.86-12.92L62.86-12.92Q62.86-8.86 64.46-6.56 66.06-4.25 68.89-4.25L68.89-4.25Q72.41-4.25 74.12-7.25L74.12-7.25 74.12-19.26Q72.41-22.14 68.94-22.14L68.94-22.14Q66.11-22.14 64.48-19.87 62.86-17.6 62.86-12.92Z" opacity="1" transform="matrix(1,0,0,1,0,0)" fill="#0074d9" class="undefined-text-0" data-fill-palette-color="primary" id="text-0"></path></svg></g></svg></g></svg></g></svg></g><g transform="matrix(1,0,0,1,0,29.234139297977904)"><svg viewBox="0 0 244.43135999999996 170.47836333354323" height="170.47836333354323" width="244.43135999999996"><g><svg xmlns="http://www.w3.org/2000/svg" xmlns:xlink="http://www.w3.org/1999/xlink" version="1.1" x="0" y="0" viewBox="1.012 8.212 47.625 33.215999999999994" enable-background="new 0 0 50 50" xml:space="preserve" height="170.47836333354323" width="244.43135999999996" class="icon-icon-0" data-fill-palette-color="accent" id="icon-0"><g fill="#0074d9" data-fill-palette-color="accent"><polygon fill="#0074d9" points="19.937,10.508 17.653,8.212 1.012,24.792 17.647,41.428 19.94,39.135 5.603,24.794  " data-fill-palette-color="accent"></polygon><polygon fill="#0074d9" points="29.714,10.508 44.046,24.794 29.711,39.135 32.004,41.428 48.637,24.792 32.001,8.212  " data-fill-palette-color="accent"></polygon></g></svg></g></svg></g></svg></g><defs></defs></svg><rect width="395.5199999999999" height="130.47976076139042" fill="none" stroke="none" visibility="hidden"></rect></g></svg></g></svg>