<svg width="126" height="34" viewBox="0 0 126 34" fill="none" xmlns="http://www.w3.org/2000/svg">
<path d="M40.4326 16.149C40.4326 14.8725 40.714 13.7323 41.2768 12.7285C41.8518 11.7123 42.6287 10.9253 43.6075 10.3677C44.5985 9.79758 45.7057 9.51254 46.9291 9.51254C48.3606 9.51254 49.6146 9.88433 50.6912 10.6279C51.7679 11.3715 52.5203 12.4001 52.9485 13.7137H49.9939C49.7002 13.0941 49.2843 12.6294 48.7459 12.3195C48.2199 12.0097 47.6081 11.8548 46.9108 11.8548C46.1645 11.8548 45.4977 12.0345 44.9104 12.3939C44.3354 12.7409 43.8827 13.2366 43.5524 13.881C43.2343 14.5255 43.0753 15.2814 43.0753 16.149C43.0753 17.0041 43.2343 17.76 43.5524 18.4169C43.8827 19.0613 44.3354 19.5632 44.9104 19.9226C45.4977 20.2696 46.1645 20.4431 46.9108 20.4431C47.6081 20.4431 48.2199 20.2882 48.7459 19.9784C49.2843 19.6562 49.7002 19.1852 49.9939 18.5656H52.9485C52.5203 19.8916 51.7679 20.9264 50.6912 21.67C49.6268 22.4012 48.3728 22.7668 46.9291 22.7668C45.7057 22.7668 44.5985 22.4879 43.6075 21.9303C42.6287 21.3602 41.8518 20.5732 41.2768 19.5694C40.714 18.5656 40.4326 17.4254 40.4326 16.149Z" fill="#56B280"/>
<path d="M54.4823 17.4688C54.4823 16.4278 54.6842 15.5045 55.0879 14.699C55.5039 13.8934 56.0605 13.2738 56.7579 12.84C57.4675 12.4063 58.2566 12.1894 59.1253 12.1894C59.8838 12.1894 60.5445 12.3443 61.1073 12.6541C61.6823 12.964 62.1411 13.3544 62.4836 13.8253V12.3567H65.0712V22.6552H62.4836V21.1495C62.1533 21.6328 61.6945 22.0356 61.1073 22.3578C60.5322 22.6676 59.8655 22.8225 59.1069 22.8225C58.2505 22.8225 57.4675 22.5995 56.7579 22.1533C56.0605 21.7072 55.5039 21.0813 55.0879 20.2758C54.6842 19.4579 54.4823 18.5222 54.4823 17.4688ZM62.4836 17.506C62.4836 16.8739 62.3613 16.3348 62.1166 15.8887C61.8719 15.4302 61.5416 15.0832 61.1256 14.8477C60.7096 14.5998 60.2631 14.4759 59.7859 14.4759C59.3088 14.4759 58.8683 14.5936 58.4646 14.8291C58.0609 15.0646 57.7305 15.4116 57.4736 15.8701C57.2289 16.3163 57.1066 16.8492 57.1066 17.4688C57.1066 18.0884 57.2289 18.6337 57.4736 19.1047C57.7305 19.5632 58.0609 19.9164 58.4646 20.1643C58.8806 20.4121 59.321 20.536 59.7859 20.536C60.2631 20.536 60.7096 20.4183 61.1256 20.1828C61.5416 19.935 61.8719 19.588 62.1166 19.1418C62.3613 18.6833 62.4836 18.138 62.4836 17.506Z" fill="#56B280"/>
<path d="M73.2145 12.208C74.4257 12.208 75.4045 12.5984 76.1508 13.3791C76.8971 14.1475 77.2702 15.2257 77.2702 16.6137V22.6552H74.701V16.9669C74.701 16.149 74.4991 15.5231 74.0954 15.0894C73.6917 14.6432 73.1411 14.4201 72.4437 14.4201C71.7341 14.4201 71.1714 14.6432 70.7554 15.0894C70.3516 15.5231 70.1498 16.149 70.1498 16.9669V22.6552H67.5805V12.3567H70.1498V13.6394C70.4923 13.1932 70.9267 12.8462 71.4527 12.5984C71.9911 12.3381 72.5783 12.208 73.2145 12.208Z" fill="#56B280"/>
<path d="M79.0528 17.4688C79.0528 16.4278 79.2547 15.5045 79.6584 14.699C80.0744 13.8934 80.6372 13.2738 81.3468 12.84C82.0564 12.4063 82.8455 12.1894 83.7141 12.1894C84.3748 12.1894 85.0049 12.3381 85.6044 12.6356C86.2038 12.9206 86.681 13.3048 87.0358 13.7881V8.8991H89.6417V22.6552H87.0358V21.1309C86.7177 21.639 86.2711 22.048 85.6961 22.3578C85.1211 22.6676 84.4543 22.8225 83.6958 22.8225C82.8394 22.8225 82.0564 22.5995 81.3468 22.1533C80.6372 21.7072 80.0744 21.0813 79.6584 20.2758C79.2547 19.4579 79.0528 18.5222 79.0528 17.4688ZM87.0541 17.506C87.0541 16.8739 86.9318 16.3348 86.6871 15.8887C86.4424 15.4302 86.1121 15.0832 85.6961 14.8477C85.2801 14.5998 84.8336 14.4759 84.3564 14.4759C83.8793 14.4759 83.4389 14.5936 83.0351 14.8291C82.6314 15.0646 82.301 15.4116 82.0441 15.8701C81.7994 16.3163 81.6771 16.8492 81.6771 17.4688C81.6771 18.0884 81.7994 18.6337 82.0441 19.1047C82.301 19.5632 82.6314 19.9164 83.0351 20.1643C83.4511 20.4121 83.8915 20.536 84.3564 20.536C84.8336 20.536 85.2801 20.4183 85.6961 20.1828C86.1121 19.935 86.4424 19.588 86.6871 19.1418C86.9318 18.6833 87.0541 18.138 87.0541 17.506Z" fill="#56B280"/>
<path d="M94.7203 8.8991V22.6552H92.151V8.8991H94.7203Z" fill="#56B280"/>
<path d="M106.71 17.2829C106.71 17.6547 106.685 17.9893 106.636 18.2867H99.204C99.2651 19.0303 99.5221 19.6128 99.9748 20.0341C100.427 20.4555 100.984 20.6662 101.645 20.6662C102.599 20.6662 103.278 20.251 103.682 19.4207H106.453C106.159 20.4121 105.596 21.2301 104.765 21.8745C103.933 22.5065 102.911 22.8225 101.7 22.8225C100.721 22.8225 99.8402 22.6057 99.0572 22.1719C98.2864 21.7258 97.6808 21.0999 97.2403 20.2944C96.8121 19.4888 96.598 18.5594 96.598 17.506C96.598 16.4402 96.8121 15.5045 97.2403 14.699C97.6685 13.8934 98.268 13.2738 99.0388 12.84C99.8096 12.4063 100.697 12.1894 101.7 12.1894C102.666 12.1894 103.529 12.4001 104.287 12.8215C105.058 13.2428 105.652 13.8439 106.068 14.6246C106.496 15.393 106.71 16.2791 106.71 17.2829ZM104.049 16.5393C104.037 15.8701 103.798 15.3372 103.333 14.9406C102.868 14.5317 102.299 14.3272 101.626 14.3272C100.99 14.3272 100.452 14.5255 100.011 14.9221C99.5832 15.3062 99.3202 15.8453 99.2223 16.5393H104.049Z" fill="#56B280"/>
<path d="M107.924 17.4688C107.924 16.4278 108.126 15.5045 108.53 14.699C108.946 13.8934 109.503 13.2738 110.2 12.84C110.91 12.4063 111.699 12.1894 112.567 12.1894C113.326 12.1894 113.987 12.3443 114.549 12.6541C115.124 12.964 115.583 13.3544 115.926 13.8253V12.3567H118.513V22.6552H115.926V21.1495C115.595 21.6328 115.137 22.0356 114.549 22.3578C113.974 22.6676 113.308 22.8225 112.549 22.8225C111.693 22.8225 110.91 22.5995 110.2 22.1533C109.503 21.7072 108.946 21.0813 108.53 20.2758C108.126 19.4579 107.924 18.5222 107.924 17.4688ZM115.926 17.506C115.926 16.8739 115.803 16.3348 115.559 15.8887C115.314 15.4302 114.984 15.0832 114.568 14.8477C114.152 14.5998 113.705 14.4759 113.228 14.4759C112.751 14.4759 112.311 14.5936 111.907 14.8291C111.503 15.0646 111.173 15.4116 110.916 15.8701C110.671 16.3163 110.549 16.8492 110.549 17.4688C110.549 18.0884 110.671 18.6337 110.916 19.1047C111.173 19.5632 111.503 19.9164 111.907 20.1643C112.323 20.4121 112.763 20.536 113.228 20.536C113.705 20.536 114.152 20.4183 114.568 20.1828C114.984 19.935 115.314 19.588 115.559 19.1418C115.803 18.6833 115.926 18.138 115.926 17.506Z" fill="#56B280"/>
<path d="M125.684 14.4945H123.904V22.6552H121.298V14.4945H120.142V12.3567H121.298V11.8362C121.298 10.5721 121.653 9.64267 122.362 9.04781C123.072 8.45295 124.143 8.17411 125.574 8.21129V10.4048C124.95 10.3924 124.516 10.4978 124.271 10.7209C124.026 10.9439 123.904 11.3467 123.904 11.9292V12.3567H125.684V14.4945Z" fill="#56B280"/>
<g clip-path="url(#clip0_729_1002)">
<mask id="mask0_729_1002" style="mask-type:alpha" maskUnits="userSpaceOnUse" x="0" y="0" width="35" height="34">
<circle cx="17.2927" cy="16.9766" r="16.8067" fill="#F578A5"/>
</mask>
<g mask="url(#mask0_729_1002)">
<circle cx="17.2927" cy="16.9766" r="16.8067" fill="#56B280"/>
<path d="M9.5618 33.5395V33.9072H9.92944H25.5183H25.8859V33.5395V26.9985C25.8859 26.3977 25.4097 25.905 24.8093 25.8845L10.7144 25.404C10.0843 25.3825 9.5618 25.8875 9.5618 26.518V33.5395Z" fill="white" stroke="white" stroke-width="0.735294"/>
<g clip-path="url(#clip1_729_1002)">
<path d="M12.8 11.9713C16.2251 7.20904 14.7518 3.33272 14.7559 3.32812C14.6833 3.134 14.7818 2.9178 14.976 2.84517C15.0739 2.80854 15.1826 2.81445 15.276 2.86142C21.4577 5.81942 24.1178 9.63792 24.6273 13.0903C24.8298 14.4316 24.7032 15.802 24.2584 17.0836C23.8508 18.2661 23.1719 19.3367 22.2761 20.2096C20.553 21.8737 18.1449 22.6408 15.7682 21.8631C15.1602 21.6647 14.5865 21.3738 14.0674 21.0004C13.026 20.2529 12.236 19.2069 11.802 18.0006C11.3416 16.7106 11.3269 15.3034 11.7605 14.004C11.9999 13.2768 12.3506 12.5911 12.8 11.9713Z" fill="white"/>
<path d="M14.8312 3.45138C14.6807 3.30897 14.674 3.07145 14.8164 2.92091C14.9588 2.77037 15.1964 2.76373 15.3469 2.90614C15.358 2.91662 15.3684 2.92776 15.3781 2.93951C15.3919 2.95193 18.3765 6.0804 18.8028 12.1271L18.8073 12.1838C18.8993 13.597 18.8539 15.0159 18.6716 16.4203L20.7124 14.8564C20.8834 14.7391 21.1169 14.7827 21.2341 14.9536C21.3402 15.1084 21.3157 15.3176 21.1768 15.4437L18.5097 17.4814C17.9126 20.9918 15.8077 25.9579 18.5942 29.0661C18.7284 29.224 18.7091 29.4608 18.5512 29.595C18.4009 29.7228 18.1773 29.7123 18.0396 29.5711C14.6982 25.8467 17.1296 21.2328 17.795 17.243L17.8037 17.187C18.0743 15.5993 18.167 13.9863 18.0802 12.3781L15.6814 10.6205C15.5103 10.5035 15.4664 10.27 15.5833 10.0989C15.7003 9.92778 15.9338 9.8839 16.1049 10.0009C16.112 10.0057 16.1189 10.0108 16.1256 10.0161L17.9843 11.3845C17.4045 6.14297 14.8421 3.46395 14.8312 3.45138Z" fill="#56B280"/>
</g>
</g>
</g>
<defs>
<clipPath id="clip0_729_1002">
<rect width="33.6134" height="33.6134" fill="white" transform="translate(0.485962 0.169922)"/>
</clipPath>
<clipPath id="clip1_729_1002">
<rect width="20.6274" height="20.6274" fill="white" transform="translate(2.46729 16.6357) rotate(-48)"/>
</clipPath>
</defs>
</svg>
